<?xml version="1.0" encoding="UTF-8" standalone="no"?>
<svg
   xmlns:dc="http://purl.org/dc/elements/1.1/"
   xmlns:cc="http://creativecommons.org/ns#"
   xmlns:rdf="http://www.w3.org/1999/02/22-rdf-syntax-ns#"
   xmlns:svg="http://www.w3.org/2000/svg"
   xmlns="http://www.w3.org/2000/svg"
   xmlns:sodipodi="http://sodipodi.sourceforge.net/DTD/sodipodi-0.dtd"
   xmlns:inkscape="http://www.inkscape.org/namespaces/inkscape"
   sodipodi:docname="logo22.svg"
   id="svg2150"
   version="1.1"
   viewBox="0 0 236.409 192.589"
   height="192.589"
   width="236.409"
   inkscape:version="0.92.3 (2405546, 2018-03-11)">
  <metadata
     id="metadata2156">
    <rdf:RDF>
      <cc:Work
         rdf:about="">
        <dc:format>image/svg+xml</dc:format>
        <dc:type
           rdf:resource="http://purl.org/dc/dcmitype/StillImage" />
      </cc:Work>
    </rdf:RDF>
  </metadata>
  <defs
     id="defs2154">
    <filter
       inkscape:label="Speckle"
       inkscape:menu="Overlays"
       inkscape:menu-tooltip="Fill object with sparse translucent specks"
       style="color-interpolation-filters:sRGB;"
       id="filter21050">
      <feTurbulence
         result="result1"
         numOctaves="1"
         baseFrequency="0.21"
         type="fractalNoise"
         id="feTurbulence21038" />
      <feColorMatrix
         result="result0"
         in="SourceGraphic"
         type="luminanceToAlpha"
         id="feColorMatrix21040" />
      <feColorMatrix
         values="1 0 0 0 0 0 1 0 0 0 0 0 1 0 0 0 0 0 0.8 0"
         result="result2"
         id="feColorMatrix21042" />
      <feComposite
         in="result1"
         operator="over"
         in2="result2"
         id="feComposite21044" />
      <feColorMatrix
         values="1 0 0 0 0 0 1 0 0 0 0 0 1 0 0 0 0 0 20 -14"
         result="result91"
         id="feColorMatrix21046" />
      <feComposite
         operator="out"
         in="SourceGraphic"
         in2="result91"
         id="feComposite21048" />
    </filter>
    <filter
       inkscape:label="Speckle"
       inkscape:menu="Overlays"
       inkscape:menu-tooltip="Fill object with sparse translucent specks"
       style="color-interpolation-filters:sRGB;"
       id="filter21064">
      <feTurbulence
         result="result1"
         numOctaves="1"
         baseFrequency="0.21"
         type="fractalNoise"
         id="feTurbulence21052" />
      <feColorMatrix
         result="result0"
         in="SourceGraphic"
         type="luminanceToAlpha"
         id="feColorMatrix21054" />
      <feColorMatrix
         values="1 0 0 0 0 0 1 0 0 0 0 0 1 0 0 0 0 0 0.8 0"
         result="result2"
         id="feColorMatrix21056" />
      <feComposite
         in="result1"
         operator="over"
         in2="result2"
         id="feComposite21058" />
      <feColorMatrix
         values="1 0 0 0 0 0 1 0 0 0 0 0 1 0 0 0 0 0 20 -14"
         result="result91"
         id="feColorMatrix21060" />
      <feComposite
         operator="out"
         in="SourceGraphic"
         in2="result91"
         id="feComposite21062" />
    </filter>
    <filter
       inkscape:label="Speckle"
       inkscape:menu="Overlays"
       inkscape:menu-tooltip="Fill object with sparse translucent specks"
       style="color-interpolation-filters:sRGB;"
       id="filter21078">
      <feTurbulence
         result="result1"
         numOctaves="1"
         baseFrequency="0.21"
         type="fractalNoise"
         id="feTurbulence21066" />
      <feColorMatrix
         result="result0"
         in="SourceGraphic"
         type="luminanceToAlpha"
         id="feColorMatrix21068" />
      <feColorMatrix
         values="1 0 0 0 0 0 1 0 0 0 0 0 1 0 0 0 0 0 0.8 0"
         result="result2"
         id="feColorMatrix21070" />
      <feComposite
         in="result1"
         operator="over"
         in2="result2"
         id="feComposite21072" />
      <feColorMatrix
         values="1 0 0 0 0 0 1 0 0 0 0 0 1 0 0 0 0 0 20 -14"
         result="result91"
         id="feColorMatrix21074" />
      <feComposite
         operator="out"
         in="SourceGraphic"
         in2="result91"
         id="feComposite21076" />
    </filter>
    <filter
       inkscape:label="Speckle"
       inkscape:menu="Overlays"
       inkscape:menu-tooltip="Fill object with sparse translucent specks"
       style="color-interpolation-filters:sRGB;"
       id="filter21092">
      <feTurbulence
         result="result1"
         numOctaves="1"
         baseFrequency="0.21"
         type="fractalNoise"
         id="feTurbulence21080" />
      <feColorMatrix
         result="result0"
         in="SourceGraphic"
         type="luminanceToAlpha"
         id="feColorMatrix21082" />
      <feColorMatrix
         values="1 0 0 0 0 0 1 0 0 0 0 0 1 0 0 0 0 0 0.8 0"
         result="result2"
         id="feColorMatrix21084" />
      <feComposite
         in="result1"
         operator="over"
         in2="result2"
         id="feComposite21086" />
      <feColorMatrix
         values="1 0 0 0 0 0 1 0 0 0 0 0 1 0 0 0 0 0 20 -14"
         result="result91"
         id="feColorMatrix21088" />
      <feComposite
         operator="out"
         in="SourceGraphic"
         in2="result91"
         id="feComposite21090" />
    </filter>
    <filter
       inkscape:label="Speckle"
       inkscape:menu="Overlays"
       inkscape:menu-tooltip="Fill object with sparse translucent specks"
       style="color-interpolation-filters:sRGB;"
       id="filter21106">
      <feTurbulence
         result="result1"
         numOctaves="1"
         baseFrequency="0.21"
         type="fractalNoise"
         id="feTurbulence21094" />
      <feColorMatrix
         result="result0"
         in="SourceGraphic"
         type="luminanceToAlpha"
         id="feColorMatrix21096" />
      <feColorMatrix
         values="1 0 0 0 0 0 1 0 0 0 0 0 1 0 0 0 0 0 0.8 0"
         result="result2"
         id="feColorMatrix21098" />
      <feComposite
         in="result1"
         operator="over"
         in2="result2"
         id="feComposite21100" />
      <feColorMatrix
         values="1 0 0 0 0 0 1 0 0 0 0 0 1 0 0 0 0 0 20 -14"
         result="result91"
         id="feColorMatrix21102" />
      <feComposite
         operator="out"
         in="SourceGraphic"
         in2="result91"
         id="feComposite21104" />
    </filter>
    <filter
       inkscape:label="Speckle"
       inkscape:menu="Overlays"
       inkscape:menu-tooltip="Fill object with sparse translucent specks"
       style="color-interpolation-filters:sRGB;"
       id="filter21120">
      <feTurbulence
         result="result1"
         numOctaves="1"
         baseFrequency="0.21"
         type="fractalNoise"
         id="feTurbulence21108" />
      <feColorMatrix
         result="result0"
         in="SourceGraphic"
         type="luminanceToAlpha"
         id="feColorMatrix21110" />
      <feColorMatrix
         values="1 0 0 0 0 0 1 0 0 0 0 0 1 0 0 0 0 0 0.8 0"
         result="result2"
         id="feColorMatrix21112" />
      <feComposite
         in="result1"
         operator="over"
         in2="result2"
         id="feComposite21114" />
      <feColorMatrix
         values="1 0 0 0 0 0 1 0 0 0 0 0 1 0 0 0 0 0 20 -14"
         result="result91"
         id="feColorMatrix21116" />
      <feComposite
         operator="out"
         in="SourceGraphic"
         in2="result91"
         id="feComposite21118" />
    </filter>
    <filter
       inkscape:label="Speckle"
       inkscape:menu="Overlays"
       inkscape:menu-tooltip="Fill object with sparse translucent specks"
       style="color-interpolation-filters:sRGB;"
       id="filter21134">
      <feTurbulence
         result="result1"
         numOctaves="1"
         baseFrequency="0.21"
         type="fractalNoise"
         id="feTurbulence21122" />
      <feColorMatrix
         result="result0"
         in="SourceGraphic"
         type="luminanceToAlpha"
         id="feColorMatrix21124" />
      <feColorMatrix
         values="1 0 0 0 0 0 1 0 0 0 0 0 1 0 0 0 0 0 0.8 0"
         result="result2"
         id="feColorMatrix21126" />
      <feComposite
         in="result1"
         operator="over"
         in2="result2"
         id="feComposite21128" />
      <feColorMatrix
         values="1 0 0 0 0 0 1 0 0 0 0 0 1 0 0 0 0 0 20 -14"
         result="result91"
         id="feColorMatrix21130" />
      <feComposite
         operator="out"
         in="SourceGraphic"
         in2="result91"
         id="feComposite21132" />
    </filter>
    <filter
       inkscape:label="Speckle"
       inkscape:menu="Overlays"
       inkscape:menu-tooltip="Fill object with sparse translucent specks"
       style="color-interpolation-filters:sRGB;"
       id="filter21148">
      <feTurbulence
         result="result1"
         numOctaves="1"
         baseFrequency="0.21"
         type="fractalNoise"
         id="feTurbulence21136" />
      <feColorMatrix
         result="result0"
         in="SourceGraphic"
         type="luminanceToAlpha"
         id="feColorMatrix21138" />
      <feColorMatrix
         values="1 0 0 0 0 0 1 0 0 0 0 0 1 0 0 0 0 0 0.8 0"
         result="result2"
         id="feColorMatrix21140" />
      <feComposite
         in="result1"
         operator="over"
         in2="result2"
         id="feComposite21142" />
      <feColorMatrix
         values="1 0 0 0 0 0 1 0 0 0 0 0 1 0 0 0 0 0 20 -14"
         result="result91"
         id="feColorMatrix21144" />
      <feComposite
         operator="out"
         in="SourceGraphic"
         in2="result91"
         id="feComposite21146" />
    </filter>
    <filter
       inkscape:label="Speckle"
       inkscape:menu="Overlays"
       inkscape:menu-tooltip="Fill object with sparse translucent specks"
       style="color-interpolation-filters:sRGB;"
       id="filter21162">
      <feTurbulence
         result="result1"
         numOctaves="1"
         baseFrequency="0.21"
         type="fractalNoise"
         id="feTurbulence21150" />
      <feColorMatrix
         result="result0"
         in="SourceGraphic"
         type="luminanceToAlpha"
         id="feColorMatrix21152" />
      <feColorMatrix
         values="1 0 0 0 0 0 1 0 0 0 0 0 1 0 0 0 0 0 0.8 0"
         result="result2"
         id="feColorMatrix21154" />
      <feComposite
         in="result1"
         operator="over"
         in2="result2"
         id="feComposite21156" />
      <feColorMatrix
         values="1 0 0 0 0 0 1 0 0 0 0 0 1 0 0 0 0 0 20 -14"
         result="result91"
         id="feColorMatrix21158" />
      <feComposite
         operator="out"
         in="SourceGraphic"
         in2="result91"
         id="feComposite21160" />
    </filter>
  </defs>
  <sodipodi:namedview
     inkscape:current-layer="svg2150"
     inkscape:window-maximized="1"
     inkscape:window-y="-8"
     inkscape:window-x="-8"
     inkscape:cy="106.11511"
     inkscape:cx="127.21004"
     inkscape:zoom="2.4508149"
     showgrid="false"
     id="namedview2152"
     inkscape:window-height="705"
     inkscape:window-width="1366"
     inkscape:pageshadow="2"
     inkscape:pageopacity="0"
     guidetolerance="10"
     gridtolerance="10"
     objecttolerance="10"
     borderopacity="1"
     bordercolor="#666666"
     pagecolor="#ffffff"
     showguides="false" />
  <text
     y="121.13792"
     x="-15.590837"
     id="text20368"
     data-name="Good News"
     transform="matrix(1.0069679,-0.24733452,0.2686433,0.92709531,0.40803142,2.4481653)"
     font-size="48"
     style="font-size:38.58744049px;font-family:TimesNewRomanPSMT, 'Times New Roman';fill:#000e35;fill-opacity:1;stroke:none;stroke-width:0;stroke-opacity:1;filter:url(#filter21162);">
    <tspan
       style="fill:#000e35;fill-opacity:1;stroke:none;stroke-width:0;stroke-opacity:1;"
       x="-15.590837"
       y="121.13792"
       id="tspan20366">Good News</tspan>
  </text>
  <path
     inkscape:connector-curvature="0"
     d="M 103.00037,32.86971 C 78.482871,34.054025 57.772121,51.157194 52.749311,73.569297 L 146.59296,50.542937 C 136.28206,38.998516 120.08086,31.822767 103.00037,32.86971 Z m 55.89805,59.999302 -93.742029,24.008798 c 10.88862,10.91929 27.49579,17.57998 43.452719,16.84786 a 54.269881,49.965198 2.0059898e-6 0 0 50.28935,-40.855888 z"
     id="path20370"
     style="fill:#000e35;fill-opacity:1;stroke:none;stroke-width:0.80400634;stroke-opacity:1;filter:url(#filter21148)" />
  <path
     style="fill:#e9efff;fill-opacity:1;stroke:none;stroke-width:0.80400634;stroke-opacity:1;filter:url(#filter21134)"
     inkscape:connector-curvature="0"
     d="m 105.73124,54.56252 -5.63894,-1.02344 -4.113939,3.69245 -0.68387,-5.251467 -5.0869,-2.457677 5.2169,-2.220357 0.96873,-5.21118 3.907289,3.876695 5.68808,-0.763285 -2.80148,4.617028 z"
     id="path20372" />
  <path
     style="fill:#e5e5e5;fill-opacity:1;stroke:none;stroke-width:0.80400634;stroke-opacity:1;filter:url(#filter21120)"
     inkscape:connector-curvature="0"
     d="m 124.13674,122.70903 -5.63893,-1.02344 -4.11395,3.69245 -0.68386,-5.25146 -5.08691,-2.45768 5.2169,-2.22036 0.96873,-5.21118 3.90729,3.8767 5.68808,-0.76329 -2.80148,4.61703 z"
     id="path20374" />
  <path
     style="fill:none;fill-opacity:1;stroke:#000e35;stroke-width:2.67975307;stroke-linejoin:bevel;stroke-opacity:1;filter:url(#filter21106)"
     inkscape:connector-curvature="0"
     d="M 174.85071,46.067705 C 155.49836,20.006807 123.92787,5.4368801 89.430521,12.37534 34.753841,23.341789 28.762491,62.630924 28.206751,80.579227"
     id="path20376" />
  <path
     style="fill:none;fill-opacity:1;stroke:#000e35;stroke-width:0.98249573;stroke-opacity:1;filter:url(#filter21092)"
     inkscape:connector-curvature="0"
     d="M 32.409251,79.339061 C 33.167071,65.944993 41.271381,26.721563 88.389281,17.429264 138.18068,7.04226 166.12133,41.462772 168.50328,47.813756"
     id="path20378" />
  <path
     style="fill:none;fill-opacity:1;stroke:#000e35;stroke-width:2.67975307;stroke-linejoin:bevel;stroke-opacity:1;filter:url(#filter21078)"
     inkscape:connector-curvature="0"
     d="m 37.126991,121.2349 c 19.34816,26.0611 50.91778,40.63029 85.416839,33.69252 54.67669,-10.96645 60.66799,-50.25635 61.22377,-68.20389"
     id="path20380" />
  <path
     style="fill:none;fill-opacity:1;stroke:#000e35;stroke-width:0.98249573;stroke-opacity:1;filter:url(#filter21064)"
     inkscape:connector-curvature="0"
     d="M 179.14707,88.623781 C 178.3892,102.01708 170.28494,141.24128 123.16703,150.53358 73.378891,160.91889 45.438371,126.50069 43.055541,120.14897"
     id="path20382" />
  <path
     inkscape:connector-curvature="0"
     id="path20384"
     d="m 28.177991,79.052512 c -0.0962,0 -0.19422,0.01886 -0.28852,0 -0.0333,-0.0067 -0.0569,-0.04172 -0.0721,-0.07213 -0.01,-0.01897 0,-0.250801 0,-0.288519 0,-0.02404 0.017,-0.05513 0,-0.07213 -0.0321,-0.03206 -0.13625,0.0561 -0.0721,-0.07213 0.0729,-0.145881 0.16739,-0.02313 0.21638,-0.07213 0.017,-0.017 -0.0108,-0.05062 0,-0.07213 0.0152,-0.03041 0.0721,-0.03813 0.0721,-0.07213 0,-0.02404 -0.0614,0.02151 -0.0721,0 -0.0215,-0.04301 0.0152,-0.09864 0,-0.144259 -0.0163,-0.04884 -0.18884,-0.161291 -0.21638,-0.21639 -0.0215,-0.04301 0.0215,-0.101249 0,-0.144259 -0.0152,-0.03041 -0.0481,-0.04809 -0.0721,-0.07213 -0.024,-0.02404 -0.0417,-0.05692 -0.0721,-0.07213 -0.0215,-0.01075 -0.0551,0.017 -0.0721,0 -0.017,-0.017 0,-0.04809 0,-0.07213 0,-0.02404 -0.0108,-0.05062 0,-0.07213 0.0657,-0.131342 0.0547,-0.04228 0.14425,-0.07213 0.051,-0.017 0.0933,-0.05513 0.14426,-0.07213 0.0228,-0.0076 0.0551,0.017 0.0721,0 0.017,-0.017 -0.017,-0.05513 0,-0.07213 0.017,-0.017 0.0551,0.017 0.0721,0 0.002,-0.0023 0,-0.198896 0,-0.216389 0,-0.168303 0,-0.336605 0,-0.504908 0,-0.02404 0,-0.04809 0,-0.07213 0,-0.02404 -0.024,-0.07213 0,-0.07213 0.024,0 0,0.04809 0,0.07213 0.024,-0.02404 0.0417,-0.05692 0.0721,-0.07213 0.019,-0.0095 0.25081,0 0.28852,0 0.32848,0 0.22686,0 0.57704,0 0.024,0 0.0481,0 0.0721,0 0.024,0 0.0506,-0.01075 0.0721,0 0.0188,0.0094 0.12188,0.09451 0.0721,0.14426 -0.002,0.0023 -0.19889,0 -0.21639,0 -0.024,0 -0.0551,0.017 -0.0721,0 -0.002,-0.0023 0,-0.198896 0,-0.21639 0,-0.02404 -0.017,-0.05513 0,-0.07213 0.034,-0.034 0.10125,0.02151 0.14426,0 0.0304,-0.01521 0.0399,-0.06138 0.0721,-0.07213 0.0456,-0.01521 0.0986,0.01521 0.14426,0 0.0323,-0.01075 0.0438,-0.05327 0.0721,-0.07213 0.0659,-0.04393 0.17505,-0.06157 0.21639,-0.144259 0.004,-0.0081 0.004,-0.352598 0,-0.360649 -0.0109,-0.0217 -0.21392,-0.181558 -0.14426,-0.216389 0.0481,-0.02404 0.0551,0.09326 0.0721,0.144259 0.008,0.02281 0,0.04809 0,0.07213 0.024,0.02404 0.0569,0.04172 0.0721,0.07213 0.01,0.01896 0,0.2508 0,0.288519 0,0.162958 -0.0108,-0.03226 0.0721,0.216389 0.0152,0.04562 -0.0215,0.10125 0,0.144259 0.0152,0.03041 0.0569,0.04172 0.0721,0.07213 0.0108,0.0215 -0.017,0.05513 0,0.07213 0.017,0.017 0.0551,-0.017 0.0721,0 0.017,0.017 -0.0108,0.05063 0,0.07213 0.0152,0.03041 0.0481,0.04809 0.0721,0.07213 0.024,0.02404 0.0417,0.05692 0.0721,0.07213 0.0215,0.01075 0.0551,-0.017 0.0721,0 0.017,0.017 0,0.04809 0,0.07213 0,0.05113 0.009,0.414129 0,0.432779 -0.0174,0.03473 -0.1269,0.109534 -0.14426,0.144259 -0.0213,0.04256 0.0165,0.166776 0,0.216389 -0.017,0.051 -0.0551,0.09326 -0.0721,0.14426 -0.0361,0.108195 0.0721,0.07213 0,0.216389 -0.0108,0.0215 -0.0551,-0.017 -0.0721,0 -0.017,0.017 0.008,0.04932 0,0.07213 -0.17415,0.522466 0.0208,-0.11372 -0.14426,0.216389 -0.0108,0.02151 0.0108,0.05062 0,0.07213 -0.0433,0.08656 -0.17311,0.129834 -0.21639,0.216389 -0.0108,0.0215 0.0108,0.05062 0,0.07213 -0.0152,0.03041 -0.0481,0.04809 -0.0721,0.07213 -0.024,0.02404 -0.0417,0.05692 -0.0721,0.07213 -0.0215,0.01075 -0.0551,-0.017 -0.0721,0 -0.017,0.017 0.0108,0.05062 0,0.07213 -0.0152,0.03041 -0.0614,0.03987 -0.0721,0.07213 -0.0152,0.04562 0.0215,0.10125 0,0.14426 -0.0215,0.04301 -0.11025,-0.034 -0.14426,0 -0.017,0.017 0.0108,0.05062 0,0.07213 -0.0152,0.03041 -0.0569,0.04172 -0.0721,0.07213 -0.0108,0.02151 0.0215,0.06138 0,0.07213 -0.043,0.02151 -0.10125,-0.0215 -0.14426,0 -0.0215,0.01075 0.017,0.05513 0,0.07213 -0.017,0.017 -0.0481,0 -0.0721,0 -0.024,0 -0.0962,0 -0.0721,0 0.0481,0 0.0962,0 0.14426,0"
     style="fill:none;stroke:none;stroke-width:1px;stroke-linecap:butt;stroke-linejoin:miter;stroke-opacity:1;filter:url(#filter21050)" />
  <path
     id="path2536"
     d="m 124.13674,122.70903 -5.63893,-1.02344 -4.11395,3.69245 -0.68386,-5.25146 -5.08691,-2.45768 5.2169,-2.22036 0.96873,-5.21118 3.90729,3.8767 5.68808,-0.76329 -2.80148,4.61703 z"
     inkscape:connector-curvature="0"
     style="fill:#e5e5e5;fill-opacity:1;stroke:none;stroke-width:0.80400634;stroke-opacity:1" />
  <path
     style="fill:#e5e5e5;fill-opacity:1;stroke:none;stroke-width:0.80400634;stroke-opacity:1"
     inkscape:connector-curvature="0"
     d="m 105.73124,54.562514 -5.63893,-1.02344 -4.11395,3.69245 -0.68386,-5.25146 -5.08691,-2.45768 5.2169,-2.22036 0.96873,-5.21118 3.90729,3.8767 5.68808,-0.76329 -2.80148,4.61703 z"
     id="path21174" />
</svg>
